<svg width="2048" height="333" viewBox="0 0 2048 333" fill="none" xmlns="http://www.w3.org/2000/svg">
<g clip-path="url(#clip0_3_35)">
<mask id="mask0_3_35" style="mask-type:luminance" maskUnits="userSpaceOnUse" x="0" y="2" width="1047" height="326">
<path d="M1046.49 2.85093H0V327.316H1046.49V2.85093Z" fill="white"/>
</mask>
<g mask="url(#mask0_3_35)">
<path d="M53.3211 2.85093H9.23801C4.136 2.85093 0 6.99107 0 12.0982V49.5739C0 54.6811 4.136 58.8211 9.23801 58.8211H53.3211C58.4232 58.8211 62.5592 54.6811 62.5592 49.5739V12.0982C62.5592 6.99107 58.4232 2.85093 53.3211 2.85093Z" fill="#DA0081"/>
<path d="M321.88 2.85093H283.956C278.77 2.85093 274.718 7.06898 274.718 12.0982V163.786C274.718 166.868 270.665 168.004 269.207 165.246L181.041 6.90675C179.583 4.31102 176.99 2.85093 173.909 2.85093H110.865C105.678 2.85093 101.626 7.06898 101.626 12.0982V254.474C101.626 259.665 105.84 263.721 110.865 263.721H148.789C153.975 263.721 158.027 259.503 158.027 254.474V98.2437C158.027 95.1613 162.079 94.0257 163.537 96.7836L254.135 259.827C255.593 262.423 258.186 263.883 261.266 263.883H321.556C326.742 263.883 330.794 259.665 330.794 254.636V12.0982C330.794 6.90675 326.58 2.85093 321.556 2.85093H321.88Z" fill="#200020"/>
<path d="M549.897 169.139C549.897 100.839 505.49 66.9324 456.707 66.9324C393.337 66.9324 357.195 110.898 357.195 170.275C357.195 237.763 402.575 269.886 455.248 269.886C507.921 269.886 538.715 242.631 546.98 207.263C548.115 202.721 545.522 198.665 538.715 198.665H508.894C505.49 198.665 502.572 200.45 501.114 203.857C493.659 220.242 481.666 228.84 458.651 228.84C432.558 228.84 415.055 212.455 412.462 179.197H540.66C546.17 179.197 549.897 175.141 549.897 169.139ZM414.569 143.344C420.079 118.847 434.341 107.978 455.896 107.978C475.183 107.978 491.714 119.171 493.983 143.344H414.569Z" fill="#200020"/>
<path d="M1037.25 71.8002H999.166C994.063 71.8002 989.927 75.9403 989.927 81.0475V254.636C989.927 259.744 994.063 263.883 999.166 263.883H1037.25C1042.35 263.883 1046.49 259.744 1046.49 254.636V81.0475C1046.49 75.9403 1042.35 71.8002 1037.25 71.8002Z" fill="#200020"/>
<path d="M754.445 71.8H716.52C711.334 71.8 707.283 76.0181 707.283 81.0473V90.4567C695.938 77.1537 677.3 67.9065 652.827 67.9065C598.048 67.9065 569.037 117.55 569.037 170.113C569.037 216.025 592.86 267.452 651.692 267.452C672.762 267.452 695.128 257.394 707.283 243.118V317.744C707.283 322.937 711.496 326.992 716.52 326.992H754.445C759.631 326.992 763.683 322.774 763.683 317.744V81.2095C763.683 76.0181 759.469 71.9622 754.445 71.9622V71.8ZM668.062 226.57C643.103 226.57 625.599 208.237 625.599 168.815C625.599 129.392 643.103 108.789 668.062 108.789C693.02 108.789 710.524 127.77 710.524 168.815C710.524 209.86 693.02 226.57 668.062 226.57Z" fill="#200020"/>
<path d="M956.384 71.8002H918.458C913.272 71.8002 909.221 76.0183 909.221 81.0475V179.198C909.221 210.833 895.121 220.081 877.131 220.081C859.141 220.081 845.041 210.833 845.041 179.198V81.0475C845.041 75.856 840.827 71.8002 835.803 71.8002H797.879C792.692 71.8002 788.64 76.0183 788.64 81.0475V183.254C788.64 244.092 822.189 268.589 877.293 268.589C932.397 268.589 965.946 243.929 965.946 183.254V81.0475C965.946 75.856 961.732 71.8002 956.708 71.8002H956.384Z" fill="#200020"/>
</g>
</g>
<path d="M1107.26 183.146C1107.04 183.146 1106.86 182.967 1106.86 182.746V149.314C1106.86 149.093 1107.04 148.914 1107.26 148.914H1215.14C1215.36 148.914 1215.54 149.093 1215.54 149.314V182.746C1215.54 182.967 1215.36 183.146 1215.14 183.146H1107.26Z" fill="#200020"/>
<path d="M1869.86 291.148C1869.64 291.148 1869.46 290.969 1869.46 290.748L1869.82 35.9863C1869.82 35.7656 1870 35.5869 1870.22 35.5869H1918.4C1918.62 35.5869 1918.8 35.766 1918.8 35.9869V190.5C1918.8 190.891 1919.3 191.05 1919.53 190.73L1983.64 99.647C1983.71 99.5405 1983.83 99.4772 1983.96 99.4772H2042.6C2042.93 99.4772 2043.12 99.8469 2042.93 100.111L1974.35 195.071C1974.24 195.214 1974.25 195.409 1974.35 195.549L2047.5 290.504C2047.71 290.767 2047.52 291.148 2047.19 291.148H1985.38C1985.25 291.148 1985.13 291.086 1985.06 290.982L1919.52 199.87C1919.3 199.554 1918.8 199.715 1918.8 200.103V290.748C1918.8 290.969 1918.62 291.148 1918.4 291.148H1869.86Z" fill="#DA0081"/>
<path d="M1750.6 296.473C1726.46 296.473 1706.94 291.03 1692.03 280.145C1677.34 269.215 1668.37 253.849 1665.12 234.047C1665.09 233.828 1665.24 233.62 1665.46 233.587L1714.03 226.249C1714.23 226.218 1714.43 226.353 1714.48 226.558C1716.53 235.376 1720.94 242.294 1727.71 247.312C1734.69 252.4 1743.5 254.944 1754.15 254.944C1762.9 254.944 1769.65 253.287 1774.38 249.975C1779.11 246.543 1781.48 241.811 1781.48 235.777C1781.48 231.991 1780.53 228.974 1778.64 226.726C1776.75 224.359 1772.49 222.052 1765.86 219.804C1759.36 217.556 1749.18 214.598 1735.34 210.93C1719.72 206.908 1707.24 202.412 1697.89 197.443C1688.54 192.473 1681.8 186.558 1677.66 179.695C1673.52 172.715 1671.45 164.314 1671.45 154.494C1671.45 142.189 1674.58 131.541 1680.85 122.549C1687.12 113.439 1695.94 106.458 1707.3 101.607C1718.77 96.6378 1732.26 94.1532 1747.76 94.1532C1762.79 94.1532 1776.1 96.4603 1787.69 101.075C1799.29 105.689 1808.63 112.255 1815.73 120.774C1822.87 129.199 1827.29 139.128 1828.99 150.562C1829.02 150.775 1828.87 150.975 1828.66 151.013L1780.12 159.743C1779.9 159.784 1779.68 159.624 1779.65 159.395C1778.75 152.496 1775.69 147.017 1770.48 142.958C1765.15 138.817 1757.94 136.392 1748.82 135.682C1739.95 135.09 1732.79 136.273 1727.35 139.231C1722.03 142.189 1719.36 146.449 1719.36 152.009C1719.36 155.322 1720.49 158.103 1722.74 160.351C1725.1 162.599 1729.89 164.906 1737.11 167.272C1744.45 169.638 1755.57 172.715 1770.48 176.501C1785.03 180.287 1796.68 184.724 1805.44 189.811C1814.31 194.78 1820.76 200.815 1824.78 207.913C1828.81 214.894 1830.82 223.354 1830.82 233.292C1830.82 252.932 1823.72 268.373 1809.52 279.613C1795.32 290.853 1775.68 296.473 1750.6 296.473Z" fill="#DA0081"/>
<path d="M1522.01 296.473C1508.29 296.473 1496.63 293.87 1487.05 288.664C1477.59 283.34 1470.37 276.3 1465.4 267.544C1460.55 258.671 1458.12 248.91 1458.12 238.261C1458.12 229.388 1459.48 221.283 1462.2 213.948C1464.93 206.612 1469.3 200.164 1475.34 194.603C1481.49 188.924 1489.71 184.191 1500.01 180.405C1507.11 177.802 1515.56 175.495 1525.38 173.484C1535.21 171.472 1546.33 169.579 1558.75 167.805C1570.56 166.006 1583.48 164.046 1597.53 161.927C1597.98 161.86 1598.18 162.457 1597.79 162.672L1582.95 170.85C1582.68 170.997 1582.35 170.802 1582.35 170.497C1582.24 159.485 1579.52 151.37 1574.19 146.153C1568.75 140.829 1559.64 138.167 1546.86 138.167C1539.76 138.167 1532.37 139.882 1524.67 143.313C1517.09 146.696 1511.75 152.667 1508.66 161.226C1508.58 161.43 1508.36 161.541 1508.16 161.476L1465.24 147.87C1465.03 147.803 1464.92 147.58 1464.98 147.371C1469.86 131.69 1478.93 118.92 1492.2 109.061C1505.57 99.1224 1523.79 94.1532 1546.86 94.1532C1563.78 94.1532 1578.8 96.7561 1591.94 101.962C1605.07 107.168 1615.01 116.16 1621.75 128.938C1625.54 136.037 1627.79 143.136 1628.5 150.235C1629.21 157.334 1629.56 165.261 1629.56 174.016V290.748C1629.56 290.969 1629.38 291.148 1629.16 291.148H1587.72C1587.5 291.148 1587.32 290.969 1587.32 290.748V252.963C1587.32 252.578 1587.82 252.415 1588.04 252.726L1593.18 259.678C1593.29 259.818 1593.29 260.01 1593.18 260.151C1583.89 272.924 1573.83 282.192 1563.01 287.954C1552.24 293.633 1538.58 296.473 1522.01 296.473ZM1532.31 258.493C1541.18 258.493 1548.63 256.955 1554.67 253.879C1560.82 250.684 1565.67 247.076 1569.22 243.053C1572.89 239.03 1575.37 235.658 1576.67 232.937C1579.16 227.731 1580.58 221.697 1580.93 214.835C1581.39 208.11 1581.63 202.483 1581.64 197.954C1581.64 197.694 1581.89 197.504 1582.14 197.567L1593.97 200.524C1594.39 200.629 1594.36 201.237 1593.94 201.308C1580.49 203.538 1569.53 205.444 1561.06 207.026C1552.18 208.564 1545.03 209.984 1539.58 211.285C1534.14 212.587 1529.35 214.007 1525.21 215.545C1520.47 217.438 1516.63 219.508 1513.67 221.756C1510.83 223.886 1508.7 226.252 1507.28 228.855C1505.98 231.458 1505.33 234.357 1505.33 237.551C1505.33 241.929 1506.4 245.715 1508.52 248.91C1510.77 251.986 1513.91 254.352 1517.93 256.009C1521.95 257.665 1526.75 258.493 1532.31 258.493Z" fill="#DA0081"/>
<path d="M1336.76 291.148C1336.54 291.148 1336.36 290.969 1336.36 290.748V81.065C1336.36 80.8441 1336.18 80.665 1335.96 80.665H1256.19C1255.97 80.665 1255.79 80.486 1255.79 80.265V35.9869C1255.79 35.766 1255.97 35.5869 1256.19 35.5869H1464.81C1465.03 35.5869 1465.21 35.766 1465.21 35.9869V80.265C1465.21 80.486 1465.03 80.665 1464.81 80.665H1385.03C1384.81 80.665 1384.63 80.8441 1384.63 81.065V290.748C1384.63 290.969 1384.45 291.148 1384.23 291.148H1336.76Z" fill="#DA0081"/>
<defs>
<clipPath id="clip0_3_35">
<rect width="1046.49" height="332.059" fill="white"/>
</clipPath>
</defs>
</svg>
